<svg width="20" height="20" viewBox="0 0 20 20" fill="none" xmlns="http://www.w3.org/2000/svg">
<path d="M9.99175 1.66675C5.39175 1.66675 1.66675 5.40008 1.66675 10.0001C1.66675 14.6001 5.39175 18.3334 9.99175 18.3334C14.6001 18.3334 18.3334 14.6001 18.3334 10.0001C18.3334 5.40008 14.6001 1.66675 9.99175 1.66675ZM10.0001 16.6667C6.31675 16.6667 3.33341 13.6834 3.33341 10.0001C3.33341 6.31675 6.31675 3.33341 10.0001 3.33341C13.6834 3.33341 16.6667 6.31675 16.6667 10.0001C16.6667 13.6834 13.6834 16.6667 10.0001 16.6667ZM9.81675 5.83341H9.76675C9.43342 5.83341 9.16675 6.10008 9.16675 6.43341V10.3667C9.16675 10.6584 9.31675 10.9334 9.57508 11.0834L13.0334 13.1584C13.3167 13.3251 13.6834 13.2417 13.8501 12.9584C13.8919 12.8909 13.9198 12.8157 13.9319 12.7373C13.9441 12.6588 13.9404 12.5787 13.9209 12.5017C13.9015 12.4247 13.8667 12.3525 13.8188 12.2892C13.7708 12.2259 13.7106 12.1729 13.6417 12.1334L10.4167 10.2167V6.43341C10.4167 6.10008 10.1501 5.83341 9.81675 5.83341V5.83341Z" fill="white"/>
</svg>
