<svg width="24" height="24" viewBox="0 0 24 24" fill="none" xmlns="http://www.w3.org/2000/svg">
<path d="M6.01609 4.50205C5.6249 4.50165 5.23748 4.57841 4.87599 4.72793C4.5145 4.87745 4.18605 5.09679 3.90944 5.3734C3.63283 5.65002 3.41349 5.97846 3.26397 6.33995C3.11445 6.70144 3.03769 7.08886 3.03809 7.48005C3.03809 9.00656 4.42979 11.0303 5.31042 12.1581C5.67501 12.625 6.35716 12.625 6.72175 12.1581C7.60238 11.0303 8.99409 9.00656 8.99409 7.48005C8.99448 7.08886 8.91772 6.70144 8.7682 6.33995C8.61869 5.97846 8.39934 5.65002 8.12273 5.3734C7.84612 5.09679 7.51767 4.87745 7.15619 4.72793C6.7947 4.57841 6.40727 4.50165 6.01609 4.50205ZM6.01609 8.54305C5.80585 8.54305 5.60033 8.4807 5.42552 8.3639C5.25071 8.2471 5.11446 8.08108 5.034 7.88684C4.95355 7.6926 4.9325 7.47887 4.97351 7.27267C5.01453 7.06647 5.11577 6.87706 5.26443 6.72839C5.4131 6.57973 5.6025 6.47849 5.80871 6.43747C6.01491 6.39646 6.22864 6.41751 6.42288 6.49796C6.61712 6.57842 6.78314 6.71467 6.89994 6.88948C7.01674 7.06429 7.07909 7.26981 7.07909 7.48005C7.07882 7.76189 6.96674 8.03212 6.76745 8.23141C6.56816 8.4307 6.29793 8.54278 6.01609 8.54305ZM21.0241 11.296V6.99605C21.0171 6.5445 20.9484 6.09603 20.8201 5.66305C20.492 4.51837 19.7658 3.52853 18.7724 2.87191C17.779 2.21529 16.5838 1.93508 15.4021 2.08176C14.2204 2.22845 13.1299 2.7924 12.3272 3.67197C11.5245 4.55154 11.0624 5.68889 11.0241 6.87905V7.12705L11.0141 7.99705V17.949H11.0101V17.99C11.0101 18.5205 10.7994 19.0292 10.4243 19.4043C10.0492 19.7793 9.54052 19.99 9.01009 19.99C8.47965 19.99 7.97095 19.7793 7.59587 19.4043C7.2208 19.0292 7.01009 18.5205 7.01009 17.99C7.01009 17.978 7.01309 17.966 7.01409 17.953H7.01009V17.01C7.01009 16.4578 6.56237 16.01 6.01009 16.01V16.01C5.4578 16.01 5.01009 16.4578 5.01009 17.01V18.01H5.01209C5.01275 19.0704 5.4346 20.087 6.18484 20.8363C6.93508 21.5856 7.95225 22.0062 9.01259 22.0055C10.0729 22.0049 11.0896 21.583 11.8389 20.8328C12.5882 20.0826 13.0088 19.0654 13.0081 18.005H13.0101V17.023H13.0151V8.99705L13.0251 7.12705V6.88005C13.0536 6.09281 13.3905 5.34834 13.9631 4.80733C14.5357 4.26631 15.298 3.97213 16.0856 3.98827C16.8732 4.00442 17.6229 4.3296 18.1728 4.89363C18.7228 5.45765 19.0289 6.2153 19.0251 7.00305V11.278C18.6421 11.4947 18.3414 11.8317 18.1695 12.2367C17.9975 12.6417 17.964 13.0921 18.0741 13.5181C18.1842 13.9441 18.4318 14.3219 18.7785 14.5928C19.1252 14.8638 19.5515 15.0128 19.9915 15.0168C20.4315 15.0207 20.8605 14.8794 21.212 14.6147C21.5635 14.3501 21.8178 13.9768 21.9356 13.5529C22.0533 13.1289 22.0279 12.678 21.8633 12.27C21.6987 11.8619 21.4031 11.5196 21.0241 11.296Z" fill="#1A73E8"/>
</svg>
