<?xml version="1.0" encoding="iso-8859-1"?>
<!-- Generator: Adobe Illustrator 19.0.0, SVG Export Plug-In . SVG Version: 6.00 Build 0)  -->
<svg version="1.1" id="Layer_1" xmlns="http://www.w3.org/2000/svg" xmlns:xlink="http://www.w3.org/1999/xlink" x="0px" y="0px"
	 viewBox="0 0 512 512" style="enable-background:new 0 0 512 512;" xml:space="preserve">
<path style="fill:#8AD5DD;" d="M20.688,179.952c1.216,4.4,2.672,8.752,4.32,12.912l3.904,8.848L145.36,416.896l116.624-215.52
	l3.712-8.432c1.552-3.888,3.088-8.432,4.352-12.992c3.104-11.216,4.688-22.864,4.688-34.592C274.704,74.032,216.688,16,145.36,16
	S16,74.032,16,145.36C16,157.088,17.568,168.72,20.688,179.952z M145.36,79.728c35.52,0,64.304,28.8,64.304,64.304
	c0,35.52-28.8,64.304-64.304,64.304c-35.52,0-64.304-28.8-64.304-64.304C81.04,108.512,109.84,79.728,145.36,79.728z"/>
<path style="fill:#DB2B42;" d="M394.576,496C450.496,496,496,450.496,496,394.576c0-55.936-45.504-101.44-101.424-101.44
	s-101.424,45.504-101.424,101.44C293.152,450.496,338.656,496,394.576,496z M335.248,386.576h51.328v-51.344h16v51.344h51.328v16
	h-51.328v51.328h-16v-51.328h-51.328V386.576z"/>
<path d="M0,145.36c0,13.456,1.84,26.496,5.264,38.864c1.376,4.96,2.992,9.808,4.864,14.528l4.4,10.016L145.36,450.512
	l130.992-242.096l3.968-9.024c1.968-4.928,3.68-10,5.12-15.168c3.424-12.368,5.264-25.392,5.264-38.864
	C290.704,65.072,225.632,0,145.36,0S0,65.072,0,145.36z M145.36,16c71.328,0,129.36,58.032,129.36,129.36
	c0,11.728-1.568,23.376-4.688,34.592c-1.264,4.56-2.8,9.104-4.352,12.992l-3.712,8.432l-116.624,215.52L28.896,201.712l-3.904-8.848
	c-1.648-4.16-3.104-8.512-4.32-12.912C17.568,168.72,16,157.088,16,145.36C16,74.032,74.032,16,145.36,16z"/>
<path d="M145.36,208.352c35.52,0,64.304-28.8,64.304-64.304c0-35.52-28.8-64.304-64.304-64.304c-35.52,0-64.304,28.8-64.304,64.304
	C81.04,179.552,109.84,208.352,145.36,208.352z M145.36,95.728c26.64,0,48.304,21.664,48.304,48.304s-21.68,48.304-48.304,48.304
	s-48.304-21.664-48.304-48.304C97.04,117.392,118.72,95.728,145.36,95.728z"/>
<path d="M394.576,512C459.328,512,512,459.328,512,394.576s-52.672-117.44-117.424-117.44s-117.424,52.688-117.424,117.44
	S329.824,512,394.576,512z M394.576,293.136c55.92,0,101.424,45.504,101.424,101.44C496,450.496,450.496,496,394.576,496
	s-101.424-45.504-101.424-101.424C293.152,338.64,338.656,293.136,394.576,293.136z"/>
<g>
	<circle style="fill:#FFFFFF;" cx="145.44" cy="144" r="48.32"/>
	<polygon style="fill:#FFFFFF;" points="402.576,335.232 386.576,335.232 386.576,386.576 335.248,386.576 335.248,402.576 
		386.576,402.576 386.576,453.904 402.576,453.904 402.576,402.576 453.904,402.576 453.904,386.576 402.576,386.576 	"/>
</g>
<g>
</g>
<g>
</g>
<g>
</g>
<g>
</g>
<g>
</g>
<g>
</g>
<g>
</g>
<g>
</g>
<g>
</g>
<g>
</g>
<g>
</g>
<g>
</g>
<g>
</g>
<g>
</g>
<g>
</g>
</svg>
